<svg width="876" height="295" viewBox="0 0 876 295" fill="none" xmlns="http://www.w3.org/2000/svg">
<g clip-path="url(#clip0_1_2)">
<path d="M128.667 1.46665C80 7.59998 35.8666 39.6 14.6666 84.2667C-20.1334 157.467 11.2 245.2 84.2667 280C157.467 314.8 245.2 283.467 280 210.4C288.933 191.467 294.8 166 294.533 147.333L294.4 140.667L292 151.333C288.8 165.333 286.267 171.867 280 183.733C263.867 213.467 239.067 233.733 205.333 244.667C190.133 249.6 162.267 250.8 145.2 247.333C96.6666 237.6 57.0666 198 47.3333 149.467C44.4 135.6 45.2 106.4 48.6666 93.3333C51.3333 83.0667 60.6666 62.6667 66.5333 54.1333C84.4 28.2667 113.6 8.93332 144.8 2.13332L154 0.266649H146C141.6 0.266649 133.867 0.799983 128.667 1.46665Z" fill="white"/>
<path d="M206 16.2667C204.533 17.0667 192.667 28.1333 179.733 41.0667C157.867 62.8 155.733 64.5333 151.2 64.5333C147.2 64.5333 145.467 63.6 140.933 58.4C134 50.6667 131.2 49.3333 122.933 49.3333C111.333 49.3333 101.333 58.9333 101.333 70.2667C101.333 81.4667 106.8 89.0667 117.333 92.1333C125.867 94.6667 131.733 92.6667 139.6 84.5333C146.133 77.8667 147.067 77.3333 152.667 77.3333C156 77.3333 160.4 76.5333 162.4 75.4667C168.133 72.4 217.867 21.8667 216.8 20.1333C214.8 17.0667 208.667 14.8 206 16.2667ZM129.733 65.0667C132.667 67.6 132.667 74.4 129.733 77.6C127.067 80.5333 119.6 80.8 116.8 77.8667C107.6 68.8 120 56.5333 129.733 65.0667Z" fill="white"/>
<path d="M194.667 92.8C165.733 121.733 140.8 146.133 139.333 147.067C137.867 147.867 132.4 148.533 127.067 148.533C116.8 148.667 112.933 150.533 107.467 157.867C103.467 163.067 103.467 176.933 107.467 182.133C111.867 188.133 116.8 191.067 123.6 191.6C132 192.533 138.533 189.733 143.467 183.2C146.8 178.933 147.333 176.933 147.467 169.467C147.6 164.667 147.733 159.733 147.867 158.667C147.867 157.6 172.4 132.267 202.267 102.4L256.533 48L252.667 44C250.533 41.8667 248.533 40 248.133 40C247.6 40 223.6 63.7333 194.667 92.8ZM132.267 163.6C135.2 166.267 135.467 173.733 132.533 176.533C129.867 179.333 122.8 179.2 119.733 176.4C116.8 173.733 116.667 167.067 119.6 163.733C122.267 160.8 128.933 160.667 132.267 163.6Z" fill="white"/>
<path d="M232.533 120.267L190.933 162L190.133 168.667C189.467 174.133 188.533 176.133 184.4 179.867C176.4 187.2 174.667 190.533 174.667 198.8C174.667 208.267 178.4 214.133 187.067 218.533C196.267 223.067 204 221.733 211.467 214.133C221.6 204 220.533 191.6 208.667 180.533C198.533 171.067 197.467 172.8 241.333 128.667C262.667 107.333 280 88.8 280 87.6C280 85.0667 276.267 78.6667 274.8 78.6667C274.4 78.6667 255.333 97.4667 232.533 120.267ZM203.733 192.933C204.533 194.133 205.333 197.067 205.333 199.467C205.333 207.867 194.667 211.067 189.333 204.4C186 200.133 186.667 195.2 191.067 191.6C194.4 188.667 201.067 189.467 203.733 192.933Z" fill="white"/>
<path d="M413.08 145.024H336.28V141.056L348.312 131.584V54.016L335 49.536L337.56 44.416H411.8L418.712 42.112V71.552L414.872 72.832L399.64 50.176H364.312V90.752H384.408L393.752 74.368H397.72V113.28L392.6 115.84L384.536 96.512H364.312V139.264H399.128L416.152 114.048L419.992 115.328V147.328L413.08 145.024Z" fill="white"/>
<path d="M475.602 145.024H439.89V141.056L451.282 132.096V94.72L439.89 86.784V82.816L461.778 74.624H466.642V135.424L478.162 139.904L475.602 145.024ZM458.45 36.224C461.01 36.224 463.101 37.1627 464.722 39.04C466.429 40.9173 467.282 43.264 467.282 46.08C467.282 48.0427 466.685 49.92 465.49 51.712C464.295 53.4187 462.802 54.784 461.01 55.808C459.218 56.832 457.469 57.344 455.762 57.344C453.202 57.344 451.069 56.4053 449.362 54.528C447.741 52.6507 446.93 50.304 446.93 47.488C446.93 45.5253 447.527 43.6907 448.722 41.984C449.917 40.192 451.41 38.784 453.202 37.76C454.994 36.736 456.743 36.224 458.45 36.224Z" fill="white"/>
<path d="M522.792 145.024H487.08V141.056L498.472 132.096V53.376L487.08 45.44V41.472L508.968 33.28H513.832V135.424L525.352 139.904L522.792 145.024Z" fill="white"/>
<path d="M603.578 145.024H579.258V133.888L564.794 145.28C563.087 145.963 560.954 146.304 558.394 146.304C551.055 146.304 545.722 144.469 542.394 140.8C539.151 137.131 537.53 132.736 537.53 127.616C537.53 124.544 538.639 121.515 540.858 118.528C543.077 115.541 546.234 112.725 550.33 110.08H579.258V101.888C579.258 96.3413 577.765 92.416 574.778 90.112C571.877 87.808 567.866 86.656 562.746 86.656C557.455 86.656 550.97 89.856 543.29 96.256L539.45 91.392L557.882 76.8C561.295 76.1173 565.391 75.776 570.17 75.776C577.935 75.776 583.951 77.696 588.218 81.536C592.485 85.2907 594.618 90.7947 594.618 98.048V135.424L606.138 139.904L603.578 145.024ZM562.49 135.424C567.695 135.424 573.285 133.035 579.258 128.256V115.328H556.602C555.493 116.693 554.682 118.059 554.17 119.424C553.743 120.789 553.53 122.283 553.53 123.904C553.53 127.061 554.341 129.792 555.962 132.096C557.583 134.315 559.759 135.424 562.49 135.424Z" fill="white"/>
<path d="M662.47 32C664.859 32 667.547 32.256 670.534 32.768C673.606 33.1947 675.782 33.664 677.062 34.176V53.888H672.198C670.065 50.4747 667.462 47.7867 664.39 45.824C661.318 43.776 658.203 42.752 655.046 42.752C651.121 42.752 648.134 44.5013 646.086 48C644.123 51.4987 643.142 56.6187 643.142 63.36V80.896H666.182V86.144H643.142V134.4L661.062 139.904L658.502 145.024H616.39V141.056L627.782 132.096V86.144H612.55V80.896H627.782V69.504C627.782 62.9333 629.574 56.7467 633.158 50.944C636.742 45.1413 641.222 40.5333 646.598 37.12C652.059 33.7067 657.35 32 662.47 32Z" fill="white"/>
<mask id="path-6-outside-1_1_2" maskUnits="userSpaceOnUse" x="333" y="146" width="330" height="117" fill="black">
<rect fill="white" x="333" y="146" width="330" height="117"/>
<path d="M413.08 258.744H336.28V254.776L348.312 245.304V167.736L335 163.256L337.56 158.136H376.472V162.104L364.312 171.576V252.984H397.336L416.152 225.208L419.992 226.488V261.048L413.08 258.744Z"/>
<path d="M502.703 258.744H478.383V247.608L463.919 259C462.212 259.683 460.079 260.024 457.519 260.024C450.18 260.024 444.847 258.189 441.519 254.52C438.276 250.851 436.655 246.456 436.655 241.336C436.655 238.264 437.764 235.235 439.983 232.248C442.202 229.261 445.359 226.445 449.455 223.8H478.383V215.608C478.383 210.061 476.89 206.136 473.903 203.832C471.002 201.528 466.991 200.376 461.871 200.376C456.58 200.376 450.095 203.576 442.415 209.976L438.575 205.112L457.007 190.52C460.42 189.837 464.516 189.496 469.295 189.496C477.06 189.496 483.076 191.416 487.343 195.256C491.61 199.011 493.743 204.515 493.743 211.768V249.144L505.263 253.624L502.703 258.744ZM461.615 249.144C466.82 249.144 472.41 246.755 478.383 241.976V229.048H455.727C454.618 230.413 453.807 231.779 453.295 233.144C452.868 234.509 452.655 236.003 452.655 237.624C452.655 240.781 453.466 243.512 455.087 245.816C456.708 248.035 458.884 249.144 461.615 249.144Z"/>
<path d="M565.435 189.496C570.043 189.496 574.182 190.989 577.851 193.976C581.606 196.877 584.507 200.845 586.555 205.88C588.688 210.915 589.755 216.461 589.755 222.52C589.755 229.091 587.75 235.277 583.739 241.08C579.728 246.797 574.694 251.405 568.635 254.904C562.662 258.317 556.859 260.024 551.227 260.024C547.728 260.024 544.443 259.256 541.371 257.72C538.384 256.184 535.739 254.008 533.435 251.192L527.931 258.744H523.067V167.096L511.675 159.16V155.192L533.563 147H538.427V204.088L555.579 190.52C558.31 189.837 561.595 189.496 565.435 189.496ZM558.651 249.272C568.294 249.272 573.115 242.403 573.115 228.664C573.115 220.728 571.878 214.029 569.403 208.568C566.928 203.107 563.43 200.376 558.907 200.376C555.664 200.376 552.507 201.016 549.435 202.296C546.363 203.576 542.694 206.093 538.427 209.848V232.76C538.427 237.453 540.176 241.379 543.675 244.536C547.174 247.693 552.166 249.272 558.651 249.272Z"/>
<path d="M646.981 244.92C646.981 242.531 645.658 240.355 643.013 238.392C640.368 236.344 636.314 233.912 630.853 231.096C626.416 228.792 622.832 226.787 620.101 225.08C617.37 223.373 615.024 221.411 613.061 219.192C611.184 216.888 610.245 214.413 610.245 211.768C610.245 208.696 611.525 205.411 614.085 201.912C616.645 198.413 619.802 195.469 623.557 193.08C627.312 190.691 630.81 189.496 634.053 189.496C637.978 189.496 642.501 190.008 647.621 191.032C652.826 191.971 656.581 193.037 658.885 194.232V213.944H654.021C651.29 208.653 648.133 204.557 644.549 201.656C640.965 198.669 637.296 197.176 633.541 197.176C630.896 197.176 628.762 197.901 627.141 199.352C625.52 200.717 624.709 202.467 624.709 204.6C624.709 207.245 626.074 209.635 628.805 211.768C631.621 213.816 635.845 216.248 641.477 219.064C645.829 221.283 649.328 223.203 651.973 224.824C654.618 226.445 656.837 228.365 658.629 230.584C660.506 232.717 661.445 235.107 661.445 237.752C661.445 240.909 660.08 244.237 657.349 247.736C654.704 251.149 651.418 254.051 647.493 256.44C643.653 258.829 640.112 260.024 636.869 260.024C632.688 260.024 627.696 259.555 621.893 258.616C616.176 257.592 612.08 256.483 609.605 255.288V235.576H614.469C617.456 240.867 620.997 245.005 625.093 247.992C629.189 250.893 633.328 252.344 637.509 252.344C640.325 252.344 642.586 251.619 644.293 250.168C646.085 248.717 646.981 246.968 646.981 244.92Z"/>
</mask>
<path d="M413.08 258.744H336.28V254.776L348.312 245.304V167.736L335 163.256L337.56 158.136H376.472V162.104L364.312 171.576V252.984H397.336L416.152 225.208L419.992 226.488V261.048L413.08 258.744Z" fill="white"/>
<path d="M502.703 258.744H478.383V247.608L463.919 259C462.212 259.683 460.079 260.024 457.519 260.024C450.18 260.024 444.847 258.189 441.519 254.52C438.276 250.851 436.655 246.456 436.655 241.336C436.655 238.264 437.764 235.235 439.983 232.248C442.202 229.261 445.359 226.445 449.455 223.8H478.383V215.608C478.383 210.061 476.89 206.136 473.903 203.832C471.002 201.528 466.991 200.376 461.871 200.376C456.58 200.376 450.095 203.576 442.415 209.976L438.575 205.112L457.007 190.52C460.42 189.837 464.516 189.496 469.295 189.496C477.06 189.496 483.076 191.416 487.343 195.256C491.61 199.011 493.743 204.515 493.743 211.768V249.144L505.263 253.624L502.703 258.744ZM461.615 249.144C466.82 249.144 472.41 246.755 478.383 241.976V229.048H455.727C454.618 230.413 453.807 231.779 453.295 233.144C452.868 234.509 452.655 236.003 452.655 237.624C452.655 240.781 453.466 243.512 455.087 245.816C456.708 248.035 458.884 249.144 461.615 249.144Z" fill="white"/>
<path d="M565.435 189.496C570.043 189.496 574.182 190.989 577.851 193.976C581.606 196.877 584.507 200.845 586.555 205.88C588.688 210.915 589.755 216.461 589.755 222.52C589.755 229.091 587.75 235.277 583.739 241.08C579.728 246.797 574.694 251.405 568.635 254.904C562.662 258.317 556.859 260.024 551.227 260.024C547.728 260.024 544.443 259.256 541.371 257.72C538.384 256.184 535.739 254.008 533.435 251.192L527.931 258.744H523.067V167.096L511.675 159.16V155.192L533.563 147H538.427V204.088L555.579 190.52C558.31 189.837 561.595 189.496 565.435 189.496ZM558.651 249.272C568.294 249.272 573.115 242.403 573.115 228.664C573.115 220.728 571.878 214.029 569.403 208.568C566.928 203.107 563.43 200.376 558.907 200.376C555.664 200.376 552.507 201.016 549.435 202.296C546.363 203.576 542.694 206.093 538.427 209.848V232.76C538.427 237.453 540.176 241.379 543.675 244.536C547.174 247.693 552.166 249.272 558.651 249.272Z" fill="white"/>
<path d="M646.981 244.92C646.981 242.531 645.658 240.355 643.013 238.392C640.368 236.344 636.314 233.912 630.853 231.096C626.416 228.792 622.832 226.787 620.101 225.08C617.37 223.373 615.024 221.411 613.061 219.192C611.184 216.888 610.245 214.413 610.245 211.768C610.245 208.696 611.525 205.411 614.085 201.912C616.645 198.413 619.802 195.469 623.557 193.08C627.312 190.691 630.81 189.496 634.053 189.496C637.978 189.496 642.501 190.008 647.621 191.032C652.826 191.971 656.581 193.037 658.885 194.232V213.944H654.021C651.29 208.653 648.133 204.557 644.549 201.656C640.965 198.669 637.296 197.176 633.541 197.176C630.896 197.176 628.762 197.901 627.141 199.352C625.52 200.717 624.709 202.467 624.709 204.6C624.709 207.245 626.074 209.635 628.805 211.768C631.621 213.816 635.845 216.248 641.477 219.064C645.829 221.283 649.328 223.203 651.973 224.824C654.618 226.445 656.837 228.365 658.629 230.584C660.506 232.717 661.445 235.107 661.445 237.752C661.445 240.909 660.08 244.237 657.349 247.736C654.704 251.149 651.418 254.051 647.493 256.44C643.653 258.829 640.112 260.024 636.869 260.024C632.688 260.024 627.696 259.555 621.893 258.616C616.176 257.592 612.08 256.483 609.605 255.288V235.576H614.469C617.456 240.867 620.997 245.005 625.093 247.992C629.189 250.893 633.328 252.344 637.509 252.344C640.325 252.344 642.586 251.619 644.293 250.168C646.085 248.717 646.981 246.968 646.981 244.92Z" fill="white"/>
<path d="M413.08 258.744H336.28V254.776L348.312 245.304V167.736L335 163.256L337.56 158.136H376.472V162.104L364.312 171.576V252.984H397.336L416.152 225.208L419.992 226.488V261.048L413.08 258.744Z" stroke="black" stroke-width="2" mask="url(#path-6-outside-1_1_2)"/>
<path d="M502.703 258.744H478.383V247.608L463.919 259C462.212 259.683 460.079 260.024 457.519 260.024C450.18 260.024 444.847 258.189 441.519 254.52C438.276 250.851 436.655 246.456 436.655 241.336C436.655 238.264 437.764 235.235 439.983 232.248C442.202 229.261 445.359 226.445 449.455 223.8H478.383V215.608C478.383 210.061 476.89 206.136 473.903 203.832C471.002 201.528 466.991 200.376 461.871 200.376C456.58 200.376 450.095 203.576 442.415 209.976L438.575 205.112L457.007 190.52C460.42 189.837 464.516 189.496 469.295 189.496C477.06 189.496 483.076 191.416 487.343 195.256C491.61 199.011 493.743 204.515 493.743 211.768V249.144L505.263 253.624L502.703 258.744ZM461.615 249.144C466.82 249.144 472.41 246.755 478.383 241.976V229.048H455.727C454.618 230.413 453.807 231.779 453.295 233.144C452.868 234.509 452.655 236.003 452.655 237.624C452.655 240.781 453.466 243.512 455.087 245.816C456.708 248.035 458.884 249.144 461.615 249.144Z" stroke="black" stroke-width="2" mask="url(#path-6-outside-1_1_2)"/>
<path d="M565.435 189.496C570.043 189.496 574.182 190.989 577.851 193.976C581.606 196.877 584.507 200.845 586.555 205.88C588.688 210.915 589.755 216.461 589.755 222.52C589.755 229.091 587.75 235.277 583.739 241.08C579.728 246.797 574.694 251.405 568.635 254.904C562.662 258.317 556.859 260.024 551.227 260.024C547.728 260.024 544.443 259.256 541.371 257.72C538.384 256.184 535.739 254.008 533.435 251.192L527.931 258.744H523.067V167.096L511.675 159.16V155.192L533.563 147H538.427V204.088L555.579 190.52C558.31 189.837 561.595 189.496 565.435 189.496ZM558.651 249.272C568.294 249.272 573.115 242.403 573.115 228.664C573.115 220.728 571.878 214.029 569.403 208.568C566.928 203.107 563.43 200.376 558.907 200.376C555.664 200.376 552.507 201.016 549.435 202.296C546.363 203.576 542.694 206.093 538.427 209.848V232.76C538.427 237.453 540.176 241.379 543.675 244.536C547.174 247.693 552.166 249.272 558.651 249.272Z" stroke="black" stroke-width="2" mask="url(#path-6-outside-1_1_2)"/>
<path d="M646.981 244.92C646.981 242.531 645.658 240.355 643.013 238.392C640.368 236.344 636.314 233.912 630.853 231.096C626.416 228.792 622.832 226.787 620.101 225.08C617.37 223.373 615.024 221.411 613.061 219.192C611.184 216.888 610.245 214.413 610.245 211.768C610.245 208.696 611.525 205.411 614.085 201.912C616.645 198.413 619.802 195.469 623.557 193.08C627.312 190.691 630.81 189.496 634.053 189.496C637.978 189.496 642.501 190.008 647.621 191.032C652.826 191.971 656.581 193.037 658.885 194.232V213.944H654.021C651.29 208.653 648.133 204.557 644.549 201.656C640.965 198.669 637.296 197.176 633.541 197.176C630.896 197.176 628.762 197.901 627.141 199.352C625.52 200.717 624.709 202.467 624.709 204.6C624.709 207.245 626.074 209.635 628.805 211.768C631.621 213.816 635.845 216.248 641.477 219.064C645.829 221.283 649.328 223.203 651.973 224.824C654.618 226.445 656.837 228.365 658.629 230.584C660.506 232.717 661.445 235.107 661.445 237.752C661.445 240.909 660.08 244.237 657.349 247.736C654.704 251.149 651.418 254.051 647.493 256.44C643.653 258.829 640.112 260.024 636.869 260.024C632.688 260.024 627.696 259.555 621.893 258.616C616.176 257.592 612.08 256.483 609.605 255.288V235.576H614.469C617.456 240.867 620.997 245.005 625.093 247.992C629.189 250.893 633.328 252.344 637.509 252.344C640.325 252.344 642.586 251.619 644.293 250.168C646.085 248.717 646.981 246.968 646.981 244.92Z" stroke="black" stroke-width="2" mask="url(#path-6-outside-1_1_2)"/>
</g>
<defs>
<clipPath id="clip0_1_2">
<rect width="876" height="294.667" fill="white"/>
</clipPath>
</defs>
</svg>
